<svg width="79" height="25" viewBox="0 0 79 25" fill="none" xmlns="http://www.w3.org/2000/svg">
<path d="M14.5625 20.6475V23.7569H3.14062V20.6475H14.5625ZM4.23438 1.00685V23.7569H0.3125V1.00685H4.23438ZM34.7031 11.7569V13.0069C34.7031 14.7256 34.4792 16.2673 34.0312 17.6319C33.5833 18.9964 32.9427 20.1579 32.1094 21.1162C31.2865 22.0746 30.2969 22.8089 29.1406 23.3194C27.9844 23.8194 26.7031 24.0694 25.2969 24.0694C23.901 24.0694 22.625 23.8194 21.4688 23.3194C20.3229 22.8089 19.3281 22.0746 18.4844 21.1162C17.6406 20.1579 16.9844 18.9964 16.5156 17.6319C16.0573 16.2673 15.8281 14.7256 15.8281 13.0069V11.7569C15.8281 10.0381 16.0573 8.50164 16.5156 7.14748C16.974 5.78289 17.6198 4.62143 18.4531 3.6631C19.2969 2.69435 20.2917 1.95998 21.4375 1.45998C22.5938 0.94956 23.8698 0.694351 25.2656 0.694351C26.6719 0.694351 27.9531 0.94956 29.1094 1.45998C30.2656 1.95998 31.2604 2.69435 32.0938 3.6631C32.9271 4.62143 33.5677 5.78289 34.0156 7.14748C34.474 8.50164 34.7031 10.0381 34.7031 11.7569ZM30.7812 13.0069V11.7256C30.7812 10.4548 30.6562 9.33498 30.4062 8.36623C30.1667 7.38706 29.8073 6.56935 29.3281 5.9131C28.8594 5.24643 28.2812 4.74643 27.5938 4.4131C26.9062 4.06935 26.1302 3.89748 25.2656 3.89748C24.401 3.89748 23.6302 4.06935 22.9531 4.4131C22.276 4.74643 21.6979 5.24643 21.2188 5.9131C20.75 6.56935 20.3906 7.38706 20.1406 8.36623C19.8906 9.33498 19.7656 10.4548 19.7656 11.7256V13.0069C19.7656 14.2777 19.8906 15.4027 20.1406 16.3819C20.3906 17.361 20.7552 18.1891 21.2344 18.8662C21.724 19.5329 22.3073 20.0381 22.9844 20.3819C23.6615 20.7152 24.4323 20.8819 25.2969 20.8819C26.1719 20.8819 26.9479 20.7152 27.625 20.3819C28.3021 20.0381 28.875 19.5329 29.3438 18.8662C29.8125 18.1891 30.1667 17.361 30.4062 16.3819C30.6562 15.4027 30.7812 14.2777 30.7812 13.0069ZM56.0938 12.1319V20.8194C55.7708 21.2464 55.2656 21.7152 54.5781 22.2256C53.901 22.7256 53 23.1579 51.875 23.5225C50.75 23.8871 49.349 24.0694 47.6719 24.0694C46.2448 24.0694 44.9375 23.8298 43.75 23.3506C42.5625 22.861 41.5365 22.1475 40.6719 21.21C39.8177 20.2725 39.1562 19.1319 38.6875 17.7881C38.2188 16.4339 37.9844 14.8923 37.9844 13.1631V11.585C37.9844 9.86623 38.1979 8.33498 38.625 6.99123C39.0625 5.63706 39.6875 4.49123 40.5 3.55373C41.3125 2.61623 42.2917 1.90789 43.4375 1.42873C44.5938 0.939143 45.901 0.694351 47.3594 0.694351C49.224 0.694351 50.7656 1.00685 51.9844 1.63185C53.2135 2.24643 54.1615 3.1006 54.8281 4.19435C55.4948 5.2881 55.9167 6.5381 56.0938 7.94435H52.25C52.125 7.15268 51.8802 6.44435 51.5156 5.81935C51.1615 5.19435 50.651 4.70477 49.9844 4.3506C49.3281 3.98602 48.474 3.80373 47.4219 3.80373C46.5156 3.80373 45.7188 3.9756 45.0312 4.31935C44.3438 4.6631 43.7708 5.16831 43.3125 5.83498C42.8646 6.50164 42.526 7.31414 42.2969 8.27248C42.0677 9.23081 41.9531 10.3246 41.9531 11.5537V13.1631C41.9531 14.4131 42.0833 15.5225 42.3438 16.4912C42.6146 17.46 43 18.2777 43.5 18.9444C44.0104 19.611 44.6302 20.1162 45.3594 20.46C46.0885 20.7933 46.9115 20.96 47.8281 20.96C48.724 20.96 49.4583 20.8871 50.0312 20.7412C50.6042 20.585 51.0573 20.4027 51.3906 20.1944C51.7344 19.9756 52 19.7673 52.1875 19.5694V15.0537H47.4531V12.1319H56.0938ZM78.5781 11.7569V13.0069C78.5781 14.7256 78.3542 16.2673 77.9062 17.6319C77.4583 18.9964 76.8177 20.1579 75.9844 21.1162C75.1615 22.0746 74.1719 22.8089 73.0156 23.3194C71.8594 23.8194 70.5781 24.0694 69.1719 24.0694C67.776 24.0694 66.5 23.8194 65.3438 23.3194C64.1979 22.8089 63.2031 22.0746 62.3594 21.1162C61.5156 20.1579 60.8594 18.9964 60.3906 17.6319C59.9323 16.2673 59.7031 14.7256 59.7031 13.0069V11.7569C59.7031 10.0381 59.9323 8.50164 60.3906 7.14748C60.849 5.78289 61.4948 4.62143 62.3281 3.6631C63.1719 2.69435 64.1667 1.95998 65.3125 1.45998C66.4688 0.94956 67.7448 0.694351 69.1406 0.694351C70.5469 0.694351 71.8281 0.94956 72.9844 1.45998C74.1406 1.95998 75.1354 2.69435 75.9688 3.6631C76.8021 4.62143 77.4427 5.78289 77.8906 7.14748C78.349 8.50164 78.5781 10.0381 78.5781 11.7569ZM74.6562 13.0069V11.7256C74.6562 10.4548 74.5312 9.33498 74.2812 8.36623C74.0417 7.38706 73.6823 6.56935 73.2031 5.9131C72.7344 5.24643 72.1562 4.74643 71.4688 4.4131C70.7812 4.06935 70.0052 3.89748 69.1406 3.89748C68.276 3.89748 67.5052 4.06935 66.8281 4.4131C66.151 4.74643 65.5729 5.24643 65.0938 5.9131C64.625 6.56935 64.2656 7.38706 64.0156 8.36623C63.7656 9.33498 63.6406 10.4548 63.6406 11.7256V13.0069C63.6406 14.2777 63.7656 15.4027 64.0156 16.3819C64.2656 17.361 64.6302 18.1891 65.1094 18.8662C65.599 19.5329 66.1823 20.0381 66.8594 20.3819C67.5365 20.7152 68.3073 20.8819 69.1719 20.8819C70.0469 20.8819 70.8229 20.7152 71.5 20.3819C72.1771 20.0381 72.75 19.5329 73.2188 18.8662C73.6875 18.1891 74.0417 17.361 74.2812 16.3819C74.5312 15.4027 74.6562 14.2777 74.6562 13.0069Z" fill="#02C0CC"/>
</svg>
